<svg width="800" height="800" viewBox="0 0 128 128" xml:space="preserve" xmlns="http://www.w3.org/2000/svg">
  <g/>
  <g/>
  <g/>
  <path d="M106 38H50c-.6 0-1 .4-1 1v12H30.1c-.3 0-.7.2-.8.5l-8.1 13c-.1.1-.2.3-.2.5v18c0 .6.4 1 1 1h9.1c.5 3.9 3.9 7 7.9 7s7.4-3.1 7.9-7h36.2c.5 3.9 3.9 7 7.9 7s7.4-3.1 7.9-7h7.1c.6 0 1-.4 1-1V39c0-.6-.4-1-1-1M30.6 53H49v11H23.8zM23 66h26v16h-2.1c0-.1 0-.2-.1-.4 0-.1 0-.2-.1-.3 0-.2-.1-.3-.1-.5 0-.1 0-.2-.1-.2-.1-.2-.2-.5-.3-.7l-.3-.6c0-.1-.1-.1-.1-.2-.1-.1-.2-.3-.3-.4s-.1-.2-.2-.2c-.1-.1-.2-.2-.3-.4-.1-.1-.1-.2-.2-.2l-.3-.3-.2-.2-.3-.3c-.1-.1-.2-.1-.3-.2s-.2-.2-.3-.2c-.1-.1-.2-.1-.3-.2s-.2-.1-.4-.2c-.1-.1-.2-.1-.3-.2s-.3-.1-.4-.2c-.1 0-.2-.1-.3-.1-.1-.1-.3-.1-.4-.1s-.2-.1-.3-.1-.3-.1-.4-.1-.2-.1-.3-.1c-.2 0-.3-.1-.5-.1h-2.2c-.2 0-.3 0-.5.1-.1 0-.2 0-.3.1-.1 0-.3.1-.4.1s-.2.1-.3.1-.3.1-.4.1-.2.1-.3.1c-.1.1-.3.1-.4.2.2-.1.1-.1 0 0s-.2.1-.4.2c-.1.1-.2.1-.3.2s-.2.2-.3.2c-.1.1-.2.1-.3.2l-.3.3c-.1.1-.2.1-.2.2l-.3.3c-.1.1-.1.2-.2.2-.1.1-.2.2-.3.4-.1.1-.1.2-.2.2-.1.1-.2.3-.3.4 0 .1-.1.1-.1.2l-.3.6c-.1.2-.2.5-.3.7 0 .1 0 .2-.1.2 0 .2-.1.3-.1.5 0 .1 0 .2-.1.3 0 .1 0 .2-.1.4H23zm16 23c-3.3 0-6-2.7-6-6s2.7-6 6-6 6 2.7 6 6-2.7 6-6 6m52 0c-3.3 0-6-2.7-6-6s2.7-6 6-6 6 2.7 6 6-2.7 6-6 6m14-7h-6.1c0-.1 0-.2-.1-.4 0-.1 0-.2-.1-.3 0-.2-.1-.3-.1-.5 0-.1 0-.2-.1-.2-.1-.2-.2-.5-.3-.7l-.3-.6c0-.1-.1-.1-.1-.2-.1-.1-.2-.3-.3-.4s-.1-.2-.2-.2c-.1-.1-.2-.2-.3-.4-.1-.1-.1-.2-.2-.2l-.3-.3-.2-.2-.3-.3c-.1-.1-.2-.1-.3-.2s-.2-.2-.3-.2c-.1-.1-.2-.1-.3-.2s-.2-.1-.4-.2c-.1-.1-.2-.1-.3-.2s-.3-.1-.4-.2c-.1 0-.2-.1-.3-.1-.1-.1-.3-.1-.4-.1s-.2-.1-.3-.1-.3-.1-.4-.1-.2-.1-.3-.1c-.2 0-.3-.1-.5-.1h-2.2c-.2 0-.3 0-.5.1-.1 0-.2 0-.3.1-.1 0-.3.1-.4.1s-.2.1-.3.1-.3.1-.4.1-.2.1-.3.1c-.1.1-.3.1-.4.2.2-.1.1-.1 0 0s-.2.1-.4.2c-.1.1-.2.1-.3.2s-.2.2-.3.2c-.1.1-.2.1-.3.2l-.3.3c-.1.1-.2.1-.2.2l-.3.3c-.1.1-.1.2-.2.2-.1.1-.2.2-.3.4-.1.1-.1.2-.2.2-.1.1-.2.3-.3.4 0 .1-.1.1-.1.2l-.3.6c-.1.2-.2.5-.3.7 0 .1 0 .2-.1.2 0 .2-.1.3-.1.5 0 .1 0 .2-.1.3 0 .1 0 .2-.1.4H51V40h54z"/>
  <g/>
  <g/>
  <g/>
  <g/>
  <g/>
  <g/>
  <g/>
  <g/>
  <g/>
  <g/>
  <g/>
  <g/>
</svg>
