<svg xmlns="http://www.w3.org/2000/svg" viewBox="0 0 512 512" xml:space="preserve">
  <path d="M405.096 142.459C401.454 60.809 334.468-1.743 252.672.037 172.21 1.793 106.75 68.684 106.75 149.146c0 14.13 2.008 28.167 5.968 41.723l59.356 202.792h167.864l60.004-204.724c4.126-15.034 5.861-30.67 5.154-46.478M318.78 245.191c0 31.003-22.596 56.812-52.181 61.866v7.118c0 7.316-5.931 13.247-13.247 13.247s-13.247-5.931-13.247-13.247v-8.25c-26.945-7.058-46.882-31.609-46.882-60.735 0-7.316 5.931-13.247 13.247-13.247s13.247 5.931 13.247 13.247c0 14.302 8.337 26.66 20.388 32.567V206.86c-26.945-7.058-46.882-31.609-46.882-60.735s19.94-53.677 46.882-60.735v-4.365c0-7.316 5.931-13.247 13.247-13.247s13.247 5.931 13.247 13.247v3.232c29.585 5.053 52.181 30.864 52.181 61.867 0 7.316-5.931 13.247-13.247 13.247s-13.247-5.928-13.247-13.244c0-16.32-10.836-30.152-25.687-34.699v71.895c29.585 5.054 52.181 30.865 52.181 61.868M174.752 421.037v54.55c0 20.166 16.861 36.414 37.026 36.414h88.445c20.166 0 37.026-16.248 37.026-36.414v-54.55z"/>
  <path d="M266.599 210.494v69.395c14.853-4.545 25.687-18.376 25.687-34.697 0-16.319-10.836-30.151-25.687-34.698m-46.884-64.366c0 14.302 8.337 26.66 20.388 32.567v-65.133c-12.05 5.906-20.388 18.264-20.388 32.566"/>
</svg>
