<svg width="800" height="800" viewBox="0 0 1024 1024" class="icon" xmlns="http://www.w3.org/2000/svg">
  <path d="M764.077 365.469c25.788-28.704 41.629-66.515 41.629-108.048 0-89.337-72.676-162.024-162.024-162.024s-162.024 72.687-162.024 162.024h45.226c0-64.405 52.404-116.798 116.798-116.798S760.48 193.016 760.48 257.421 708.076 374.22 643.682 374.22c-20.648 0-40.965-5.466-58.741-15.822l-22.746 39.087c24.666 14.365 52.845 21.96 81.487 21.96 31.035 0 59.956-8.923 84.62-24.116 2.734 4.022 144.404 55.22 154.275 292.471.508 12.157 10.511 21.675 22.568 21.675.331 0 .64-.012.972-.023 12.477-.519 22.171-11.053 21.642-23.53-9.692-233.333-126.93-303.97-163.682-320.452" fill="#d4af37"/>
  <path d="M541.966 518.122c29.269-33.913 47.105-77.953 47.105-126.158 0-106.684-86.81-193.482-193.493-193.482s-193.47 86.797-193.47 193.48c0 48.205 17.829 92.242 47.09 126.155-51.365 30.577-153.31 121.144-153.31 358.758 0 12.488 10.114 22.613 22.613 22.613s22.614-10.125 22.614-22.613c0-244.455 113.553-312.789 143.594-326.584 31.432 22.083 69.622 35.164 110.87 35.164 41.245 0 79.44-13.08 110.876-35.164 30.046 13.806 143.609 82.134 143.609 326.584 0 12.488 10.114 22.613 22.613 22.613s22.614-10.125 22.614-22.613c-.001-237.606-101.952-328.173-153.325-358.753m-294.632-126.16c0-81.751 66.492-148.255 148.244-148.255s148.266 66.504 148.266 148.256-66.515 148.266-148.266 148.266-148.244-66.514-148.244-148.266" fill="#d4af37"/>
</svg>
