<svg xmlns="http://www.w3.org/2000/svg" viewBox="0 0 32 32" xml:space="preserve">
  <path d="M29 31.36H3v-.72h6.633l5.013-18.708A2.358 2.358 0 0 1 16 7.64 2.36 2.36 0 0 1 18.36 10c0 .798-.398 1.505-1.007 1.932l5.014 18.708H29zm-18.621-.72h11.243l-.879-3.279h-9.485zm1.072-4h9.099l-1.146-4.279h-6.806zm1.34-5h6.419l-1.146-4.279h-4.126zm1.339-5h3.74l-1.175-4.385a2.4 2.4 0 0 1-1.39 0zM16 8.36c-.904 0-1.64.736-1.64 1.64s.736 1.64 1.64 1.64 1.64-.736 1.64-1.64-.736-1.64-1.64-1.64M7.276 18.755A12.27 12.27 0 0 1 3.64 10c0-3.301 1.286-6.405 3.62-8.74l.509.509A11.57 11.57 0 0 0 4.36 10a11.56 11.56 0 0 0 3.424 8.245zm17.464-.015-.51-.51A11.56 11.56 0 0 0 27.639 10c0-3.11-1.21-6.033-3.409-8.231l.51-.509c2.334 2.334 3.62 5.438 3.62 8.74s-1.286 6.405-3.62 8.74M9.382 16.618A9.3 9.3 0 0 1 6.64 10c0-2.5.974-4.851 2.742-6.618l.509.509A8.58 8.58 0 0 0 7.36 10a8.58 8.58 0 0 0 2.531 6.109zm13.237 0-.51-.509c1.632-1.632 2.53-3.802 2.53-6.109s-.898-4.477-2.53-6.109l.51-.509C24.387 5.15 25.36 7.5 25.36 10s-.973 4.85-2.741 6.618m-2.122-2.121-.51-.509c1.065-1.066 1.652-2.482 1.652-3.988s-.587-2.922-1.652-3.988l.51-.509C21.698 6.704 22.36 8.301 22.36 10s-.662 3.296-1.863 4.497m-8.994 0C10.302 13.296 9.64 11.699 9.64 10s.662-3.296 1.863-4.497l.509.509C10.947 7.077 10.36 8.494 10.36 10s.587 2.923 1.652 3.988z"/>
  <path style="fill:none" d="M0 0h32v32H0z"/>
</svg>
